<?xml version="1.0" encoding="UTF-8"?><!DOCTYPE svg PUBLIC "-//W3C//DTD SVG 1.1//EN" "http://www.w3.org/Graphics/SVG/1.1/DTD/svg11.dtd">
<svg style="width:0;height:0;visibility:hidden;" xmlns="http://www.w3.org/2000/svg" xmlns:xlink="http://www.w3.org/1999/xlink">
  <defs/>
  <symbol id="rd-icon-chart" viewBox="0 0 18 18">
      <path d="m8.5 4.5c0 1.38071-1.11929 2.5-2.5 2.5s-2.5-1.11929-2.5-2.5 1.11929-2.5 2.5-2.5 2.5 1.11929 2.5 2.5z"/>
      <path d="m15.5 3.375h-2v2.625h-2.5v2h2.5v2.375h2v-2.375h2.5v-2h-2.5z"/>
      <path d="m1 12.875c0-2.7614 2.23858-5 5-5s5 2.2386 5 5v3.125h-10z"/>
  </symbol>
  <symbol height='72px' width='72px' id="rd-icon-lightning" viewBox="0 0 18 18">
    <path d="M11 13a5 5 0 1 0-4.975-5.5H4A1.5 1.5 0 0 0 2.5 6h-1A1.5 1.5 0 0 0 0 7.5v1A1.5 1.5 0 0 0 1.5 10h1A1.5 1.5 0 0 0 4 8.5h2.025A5 5 0 0 0 11 13m.5-7.5v2h2a.5.5 0 0 1 0 1h-2v2a.5.5 0 0 1-1 0v-2h-2a.5.5 0 0 1 0-1h2v-2a.5.5 0 0 1 1 0"/>
  </symbol>
  <symbol height='36px' width='36px' id="rd-icon-information" viewBox="0 0 18 18">
   <path fill-rule="evenodd" d="M0 0h1v15h15v1H0zm14.817 3.113a.5.5 0 0 1 .07.704l-4.5 5.5a.5.5 0 0 1-.74.037L7.06 6.767l-3.656 5.027a.5.5 0 0 1-.808-.588l4-5.5a.5.5 0 0 1 .758-.06l2.609 2.61 4.15-5.073a.5.5 0 0 1 .704-.07"/>
  </symbol>
</svg>
